<?xml version="1.0" encoding="UTF-8"?> <svg xmlns="http://www.w3.org/2000/svg" viewBox="0 0 64 64" width="500px" height="500px"><linearGradient id="9eyz4I7zpkzrXGfLRSIZsa" x1="32" x2="32" y1="11" y2="53" gradientTransform="matrix(-1 0 0 1 64 0)" gradientUnits="userSpaceOnUse" spreadMethod="reflect"><stop offset="0" stop-color="#1a6dff"></stop><stop offset="1" stop-color="#c822ff"></stop></linearGradient><path fill="url(#9eyz4I7zpkzrXGfLRSIZsa)" d="M57,11v2H7v-2H57z M57,31H7v2h50V31z M43,21H7v2h36V21z M43,41H7v2h36V41z M57,51H7v2h50V51z"></path><linearGradient id="9eyz4I7zpkzrXGfLRSIZsb" x1="9" x2="9" y1="16" y2="48" gradientUnits="userSpaceOnUse" spreadMethod="reflect"><stop offset="0" stop-color="#6dc7ff"></stop><stop offset="1" stop-color="#e6abff"></stop></linearGradient><path fill="url(#9eyz4I7zpkzrXGfLRSIZsb)" d="M11,16v2H7v-2H11z M11,26v2H7v-2H11z M11,36v2H7v-2H11z M11,46v2H7v-2H11z"></path></svg> 